<svg width="1440" height="1403" viewBox="0 0 1440 1403" fill="none" xmlns="http://www.w3.org/2000/svg">
<path fill-rule="evenodd" clip-rule="evenodd" d="M-207 541.248L-131.009 586.697C-55.0177 632.147 96.9647 723.046 223.058 734.589C349.151 746.133 449.355 678.321 544.381 594.639C639.406 510.956 729.254 411.402 847.581 399.139C965.907 386.876 1112.71 461.904 1236.22 465.512C1359.72 469.121 1459.92 401.309 1510.03 367.403L1560.13 333.497L1606.73 476.337L1551.45 494.372C1496.17 512.406 1385.61 548.476 1275.05 584.545C1164.49 620.615 1053.93 656.684 943.371 692.754C832.812 728.823 722.252 764.893 611.693 800.962C501.133 837.032 390.574 873.101 280.014 909.171C169.455 945.24 58.8952 981.31 3.61545 999.345L-51.6643 1017.38L-207 541.248Z" fill="#FEFBF6"/>
<path fill-rule="evenodd" clip-rule="evenodd" d="M1732.92 861.005L1656.93 815.556C1580.94 770.106 1428.96 679.207 1302.86 667.663C1176.77 656.12 1076.57 723.931 981.539 807.614C886.513 891.297 796.665 990.85 678.339 1003.11C560.013 1015.38 413.208 940.348 289.704 936.74C166.2 933.132 65.9964 1000.94 15.8944 1034.85L-34.2075 1068.76L-80.8082 925.916L-25.5285 907.881C29.7514 889.846 140.311 853.777 250.87 817.707C361.43 781.638 471.989 745.568 582.549 709.499C693.108 673.429 803.668 637.36 914.227 601.29C1024.79 565.221 1135.35 529.151 1245.91 493.082C1356.47 457.012 1467.02 420.943 1522.3 402.908L1577.58 384.873L1732.92 861.005Z" fill="#FEFBF6"/>
</svg>
